<mxfile host="app.diagrams.net" modified="2022-07-05T08:38:51.596Z" agent="5.0 (Windows)" etag="yLOjN0WwqCsCFZmXS0Tc" version="20.0.1" type="github">
  <diagram id="I17-ot75xHBC7Rc3FFhj" name="Page-1">
    <mxGraphModel dx="1422" dy="731" grid="1" gridSize="10" guides="1" tooltips="1" connect="1" arrows="1" fold="1" page="1" pageScale="1" pageWidth="3300" pageHeight="4681" math="0" shadow="0">
      <root>
        <mxCell id="0" />
        <mxCell id="1" parent="0" />
        <mxCell id="qgw1rWRrNnY7rz2xJ9T5-11" style="edgeStyle=orthogonalEdgeStyle;rounded=0;orthogonalLoop=1;jettySize=auto;html=1;exitX=0.5;exitY=0.5;exitDx=0;exitDy=0;exitPerimeter=0;entryX=0;entryY=0.5;entryDx=0;entryDy=0;" edge="1" parent="1" source="qgw1rWRrNnY7rz2xJ9T5-1" target="qgw1rWRrNnY7rz2xJ9T5-5">
          <mxGeometry relative="1" as="geometry" />
        </mxCell>
        <mxCell id="qgw1rWRrNnY7rz2xJ9T5-20" value="Git" style="edgeLabel;html=1;align=center;verticalAlign=middle;resizable=0;points=[];" vertex="1" connectable="0" parent="qgw1rWRrNnY7rz2xJ9T5-11">
          <mxGeometry x="0.7708" y="1" relative="1" as="geometry">
            <mxPoint x="-289" y="1" as="offset" />
          </mxGeometry>
        </mxCell>
        <mxCell id="qgw1rWRrNnY7rz2xJ9T5-1" value="Dev" style="shape=umlActor;verticalLabelPosition=bottom;verticalAlign=top;html=1;outlineConnect=0;" vertex="1" parent="1">
          <mxGeometry x="220" y="400" width="30" height="60" as="geometry" />
        </mxCell>
        <mxCell id="qgw1rWRrNnY7rz2xJ9T5-2" value="" style="endArrow=none;html=1;rounded=0;" edge="1" parent="1">
          <mxGeometry width="50" height="50" relative="1" as="geometry">
            <mxPoint x="440" y="540" as="sourcePoint" />
            <mxPoint x="440" y="80" as="targetPoint" />
          </mxGeometry>
        </mxCell>
        <mxCell id="qgw1rWRrNnY7rz2xJ9T5-12" style="edgeStyle=orthogonalEdgeStyle;rounded=0;orthogonalLoop=1;jettySize=auto;html=1;entryX=0.5;entryY=1;entryDx=0;entryDy=0;" edge="1" parent="1" source="qgw1rWRrNnY7rz2xJ9T5-5" target="qgw1rWRrNnY7rz2xJ9T5-6">
          <mxGeometry relative="1" as="geometry" />
        </mxCell>
        <mxCell id="qgw1rWRrNnY7rz2xJ9T5-5" value="Jenkins&lt;br&gt;GitLab" style="rounded=0;whiteSpace=wrap;html=1;fillColor=#f8cecc;strokeColor=#b85450;" vertex="1" parent="1">
          <mxGeometry x="680" y="400" width="120" height="60" as="geometry" />
        </mxCell>
        <mxCell id="qgw1rWRrNnY7rz2xJ9T5-6" value="App Machine" style="rounded=0;whiteSpace=wrap;html=1;" vertex="1" parent="1">
          <mxGeometry x="680" y="280" width="120" height="60" as="geometry" />
        </mxCell>
        <mxCell id="qgw1rWRrNnY7rz2xJ9T5-10" style="edgeStyle=orthogonalEdgeStyle;rounded=0;orthogonalLoop=1;jettySize=auto;html=1;entryX=0;entryY=0.5;entryDx=0;entryDy=0;" edge="1" parent="1" source="qgw1rWRrNnY7rz2xJ9T5-7" target="qgw1rWRrNnY7rz2xJ9T5-6">
          <mxGeometry relative="1" as="geometry" />
        </mxCell>
        <mxCell id="qgw1rWRrNnY7rz2xJ9T5-7" value="Proxy" style="rounded=0;whiteSpace=wrap;html=1;fillColor=#f8cecc;strokeColor=#b85450;" vertex="1" parent="1">
          <mxGeometry x="480" y="280" width="120" height="60" as="geometry" />
        </mxCell>
        <mxCell id="qgw1rWRrNnY7rz2xJ9T5-9" style="edgeStyle=orthogonalEdgeStyle;rounded=0;orthogonalLoop=1;jettySize=auto;html=1;entryX=0;entryY=0.5;entryDx=0;entryDy=0;" edge="1" parent="1" source="qgw1rWRrNnY7rz2xJ9T5-8" target="qgw1rWRrNnY7rz2xJ9T5-7">
          <mxGeometry relative="1" as="geometry" />
        </mxCell>
        <mxCell id="qgw1rWRrNnY7rz2xJ9T5-21" value="HTTP" style="edgeLabel;html=1;align=center;verticalAlign=middle;resizable=0;points=[];" vertex="1" connectable="0" parent="qgw1rWRrNnY7rz2xJ9T5-9">
          <mxGeometry x="-0.1565" y="3" relative="1" as="geometry">
            <mxPoint x="-7" y="3" as="offset" />
          </mxGeometry>
        </mxCell>
        <mxCell id="qgw1rWRrNnY7rz2xJ9T5-8" value="App User" style="shape=umlActor;verticalLabelPosition=bottom;verticalAlign=top;html=1;outlineConnect=0;" vertex="1" parent="1">
          <mxGeometry x="220" y="280" width="30" height="60" as="geometry" />
        </mxCell>
        <mxCell id="qgw1rWRrNnY7rz2xJ9T5-19" style="edgeStyle=orthogonalEdgeStyle;rounded=0;orthogonalLoop=1;jettySize=auto;html=1;entryX=0;entryY=0.5;entryDx=0;entryDy=0;" edge="1" parent="1" source="qgw1rWRrNnY7rz2xJ9T5-13" target="qgw1rWRrNnY7rz2xJ9T5-15">
          <mxGeometry relative="1" as="geometry" />
        </mxCell>
        <mxCell id="qgw1rWRrNnY7rz2xJ9T5-22" value="VNC" style="edgeLabel;html=1;align=center;verticalAlign=middle;resizable=0;points=[];" vertex="1" connectable="0" parent="qgw1rWRrNnY7rz2xJ9T5-19">
          <mxGeometry x="-0.1739" y="-1" relative="1" as="geometry">
            <mxPoint x="-5" y="-1" as="offset" />
          </mxGeometry>
        </mxCell>
        <mxCell id="qgw1rWRrNnY7rz2xJ9T5-13" value="Admin" style="shape=umlActor;verticalLabelPosition=bottom;verticalAlign=top;html=1;outlineConnect=0;" vertex="1" parent="1">
          <mxGeometry x="220" y="160" width="30" height="60" as="geometry" />
        </mxCell>
        <mxCell id="qgw1rWRrNnY7rz2xJ9T5-16" style="edgeStyle=orthogonalEdgeStyle;rounded=0;orthogonalLoop=1;jettySize=auto;html=1;entryX=0.25;entryY=0;entryDx=0;entryDy=0;" edge="1" parent="1" source="qgw1rWRrNnY7rz2xJ9T5-15" target="qgw1rWRrNnY7rz2xJ9T5-6">
          <mxGeometry relative="1" as="geometry" />
        </mxCell>
        <mxCell id="qgw1rWRrNnY7rz2xJ9T5-15" value="VNC Server" style="rounded=0;whiteSpace=wrap;html=1;fillColor=#f8cecc;strokeColor=#b85450;" vertex="1" parent="1">
          <mxGeometry x="480" y="160" width="120" height="60" as="geometry" />
        </mxCell>
        <mxCell id="qgw1rWRrNnY7rz2xJ9T5-18" style="edgeStyle=orthogonalEdgeStyle;rounded=0;orthogonalLoop=1;jettySize=auto;html=1;entryX=0.75;entryY=0;entryDx=0;entryDy=0;" edge="1" parent="1" source="qgw1rWRrNnY7rz2xJ9T5-17" target="qgw1rWRrNnY7rz2xJ9T5-6">
          <mxGeometry relative="1" as="geometry" />
        </mxCell>
        <mxCell id="qgw1rWRrNnY7rz2xJ9T5-17" value="OS Repository" style="rounded=0;whiteSpace=wrap;html=1;" vertex="1" parent="1">
          <mxGeometry x="840" y="160" width="120" height="60" as="geometry" />
        </mxCell>
        <mxCell id="qgw1rWRrNnY7rz2xJ9T5-24" style="edgeStyle=orthogonalEdgeStyle;rounded=0;orthogonalLoop=1;jettySize=auto;html=1;entryX=1;entryY=0.5;entryDx=0;entryDy=0;" edge="1" parent="1" source="qgw1rWRrNnY7rz2xJ9T5-23" target="qgw1rWRrNnY7rz2xJ9T5-6">
          <mxGeometry relative="1" as="geometry" />
        </mxCell>
        <mxCell id="qgw1rWRrNnY7rz2xJ9T5-23" value="&lt;div&gt;Prod&lt;/div&gt;&lt;div&gt;DB&lt;br&gt;&lt;/div&gt;" style="shape=cylinder3;whiteSpace=wrap;html=1;boundedLbl=1;backgroundOutline=1;size=15;" vertex="1" parent="1">
          <mxGeometry x="870" y="270" width="60" height="80" as="geometry" />
        </mxCell>
      </root>
    </mxGraphModel>
  </diagram>
</mxfile>
